# MagicaVoxel @ Ephtracy

# group
o 

# material
mtllib banana.mtl
usemtl palette

# normals
vn -1 0 0
vn 1 0 0
vn 0 0 1
vn 0 0 -1
vn 0 -1 0
vn 0 1 0

# texcoords
vt 0.318359 0.5
vt 0.474609 0.5
vt 0.482422 0.5

# verts
v -0.5 0.1 -0.2
v -0.5 0.1 -0.5
v -0.5 0.2 -0.2
v -0.5 0.2 -0.5
v -0.4 0 -0.2
v -0.4 0 -0.5
v -0.4 0.1 0
v -0.4 0.1 -0.2
v -0.4 0.1 -0.5
v -0.4 0.1 -0.6
v -0.4 0.1 -0.7
v -0.4 0.2 0
v -0.4 0.2 -0.2
v -0.4 0.2 -0.5
v -0.4 0.2 -0.6
v -0.4 0.2 -0.7
v -0.4 0.3 -0.2
v -0.4 0.3 -0.5
v -0.3 0 0
v -0.3 0 -0.2
v -0.3 0.1 0.2
v -0.3 0.1 0
v -0.3 0.1 -0.2
v -0.3 0.1 -0.7
v -0.3 0.1 -0.8
v -0.3 0.2 0.2
v -0.3 0.2 0
v -0.3 0.2 -0.2
v -0.3 0.2 -0.7
v -0.3 0.2 -0.8
v -0.3 0.3 0
v -0.3 0.3 -0.2
v -0.2 0 0.2
v -0.2 0 0
v -0.2 0.1 0.3
v -0.2 0.1 0.2
v -0.2 0.1 0
v -0.2 0.2 0.3
v -0.2 0.2 0.2
v -0.2 0.2 0
v -0.2 0.3 0.2
v -0.2 0.3 0
v -0.1 0 0.3
v -0.1 0 0.2
v -0.1 0.1 0.4
v -0.1 0.1 0.3
v -0.1 0.1 0.2
v -0.1 0.2 0.4
v -0.1 0.2 0.3
v -0.1 0.2 0.2
v -0.1 0.3 0.3
v -0.1 0.3 0.2
v 0 0 0.4
v 0 0 0.3
v 0 0.1 0.5
v 0 0.1 0.4
v 0 0.1 0.3
v 0 0.2 0.5
v 0 0.2 0.4
v 0 0.2 0.3
v 0 0.3 0.4
v 0 0.3 0.3
v 0.1 0 0.5
v 0.1 0 0.4
v 0.1 0.1 0.6
v 0.1 0.1 0.5
v 0.1 0.1 0.4
v 0.1 0.2 0.6
v 0.1 0.2 0.5
v 0.1 0.2 0.4
v 0.1 0.3 0.5
v 0.1 0.3 0.4
v 0.2 0 0.6
v 0.2 0 0.5
v 0.2 0.1 0.7
v 0.2 0.1 0.6
v 0.2 0.1 0.5
v 0.2 0.2 0.7
v 0.2 0.2 0.6
v 0.3 0.2 0.6
v 0.3 0.2 0.5
v 0.3 0.3 0.6
v 0.3 0.3 0.5
v -0.2 0 -0.3
v -0.2 0 -0.5
v -0.2 0.1 -0.3
v -0.2 0.1 -0.5
v -0.2 0.1 -0.6
v -0.2 0.1 -0.8
v -0.2 0.2 -0.3
v -0.2 0.2 -0.5
v -0.2 0.2 -0.6
v -0.2 0.2 -0.8
v -0.2 0.3 -0.3
v -0.2 0.3 -0.5
v -0.1 0 -0.1
v -0.1 0 -0.3
v -0.1 0.1 -0.1
v -0.1 0.1 -0.3
v -0.1 0.1 -0.5
v -0.1 0.2 -0.1
v -0.1 0.2 -0.3
v -0.1 0.2 -0.5
v -0.1 0.3 -0.1
v -0.1 0.3 -0.3
v 0 0 0.1
v 0 0 -0.1
v 0 0.1 0.1
v 0 0.1 -0.1
v 0 0.1 -0.3
v 0 0.2 0.1
v 0 0.2 -0.1
v 0 0.2 -0.3
v 0 0.3 0.1
v 0 0.3 -0.1
v 0.1 0 0.2
v 0.1 0 0.1
v 0.1 0.1 0.2
v 0.1 0.1 0.1
v 0.1 0.1 -0.1
v 0.1 0.2 0.2
v 0.1 0.2 0.1
v 0.1 0.2 -0.1
v 0.1 0.3 0.2
v 0.1 0.3 0.1
v 0.2 0 0.3
v 0.2 0 0.2
v 0.2 0.1 0.3
v 0.2 0.1 0.2
v 0.2 0.1 0.1
v 0.2 0.2 0.3
v 0.2 0.2 0.2
v 0.2 0.2 0.1
v 0.2 0.3 0.3
v 0.2 0.3 0.2
v 0.3 0 0.4
v 0.3 0 0.3
v 0.3 0.1 0.4
v 0.3 0.1 0.3
v 0.3 0.1 0.2
v 0.3 0.2 0.4
v 0.3 0.2 0.3
v 0.3 0.2 0.2
v 0.3 0.3 0.4
v 0.3 0.3 0.3
v 0.4 0 0.5
v 0.4 0 0.4
v 0.4 0.1 0.5
v 0.4 0.1 0.4
v 0.4 0.1 0.3
v 0.4 0.2 0.5
v 0.4 0.2 0.4
v 0.4 0.2 0.3
v 0.4 0.3 0.5
v 0.4 0.3 0.4
v 0.6 0 0.6
v 0.6 0 0.5
v 0.6 0.1 0.6
v 0.6 0.1 0.5
v 0.6 0.1 0.4
v 0.6 0.2 0.6
v 0.6 0.2 0.5
v 0.6 0.2 0.4
v 0.6 0.3 0.6
v 0.6 0.3 0.5
v 0.8 0.1 0.7
v 0.8 0.1 0.5
v 0.8 0.2 0.7
v 0.8 0.2 0.5
v 0.2 0.1 0.7
v 0.2 0.2 0.7
v 0.7 0.1 0.7
v 0.7 0.2 0.7
v 0.8 0.1 0.7
v 0.8 0.2 0.7
v 0.1 0.1 0.6
v 0.1 0.2 0.6
v 0.2 0 0.6
v 0.2 0.1 0.6
v 0.2 0.2 0.6
v 0.3 0.2 0.6
v 0.3 0.3 0.6
v 0.6 0 0.6
v 0.6 0.1 0.6
v 0.6 0.2 0.6
v 0.6 0.3 0.6
v 0 0.1 0.5
v 0 0.2 0.5
v 0.1 0 0.5
v 0.1 0.1 0.5
v 0.1 0.2 0.5
v 0.1 0.3 0.5
v 0.2 0 0.5
v 0.2 0.1 0.5
v 0.3 0.2 0.5
v 0.3 0.3 0.5
v -0.1 0.1 0.4
v -0.1 0.2 0.4
v 0 0 0.4
v 0 0.1 0.4
v 0 0.2 0.4
v 0 0.3 0.4
v 0.1 0 0.4
v 0.1 0.1 0.4
v 0.1 0.2 0.4
v 0.1 0.3 0.4
v -0.2 0.1 0.3
v -0.2 0.2 0.3
v -0.1 0 0.3
v -0.1 0.1 0.3
v -0.1 0.2 0.3
v -0.1 0.3 0.3
v 0 0 0.3
v 0 0.1 0.3
v 0 0.2 0.3
v 0 0.3 0.3
v -0.3 0.1 0.2
v -0.3 0.2 0.2
v -0.2 0 0.2
v -0.2 0.1 0.2
v -0.2 0.2 0.2
v -0.2 0.3 0.2
v -0.1 0 0.2
v -0.1 0.1 0.2
v -0.1 0.2 0.2
v -0.1 0.3 0.2
v -0.4 0.1 0
v -0.4 0.2 0
v -0.3 0 0
v -0.3 0.1 0
v -0.3 0.2 0
v -0.3 0.3 0
v -0.2 0 0
v -0.2 0.1 0
v -0.2 0.2 0
v -0.2 0.3 0
v -0.5 0.1 -0.2
v -0.5 0.2 -0.2
v -0.4 0 -0.2
v -0.4 0.1 -0.2
v -0.4 0.2 -0.2
v -0.4 0.3 -0.2
v -0.3 0 -0.2
v -0.3 0.1 -0.2
v -0.3 0.2 -0.2
v -0.3 0.3 -0.2
v 0.4 0 0.5
v 0.4 0.1 0.5
v 0.4 0.2 0.5
v 0.4 0.3 0.5
v 0.6 0 0.5
v 0.6 0.1 0.5
v 0.6 0.2 0.5
v 0.6 0.3 0.5
v 0.7 0.1 0.5
v 0.7 0.2 0.5
v 0.8 0.1 0.5
v 0.8 0.2 0.5
v 0.3 0 0.4
v 0.3 0.1 0.4
v 0.3 0.2 0.4
v 0.3 0.3 0.4
v 0.4 0 0.4
v 0.4 0.1 0.4
v 0.4 0.2 0.4
v 0.4 0.3 0.4
v 0.6 0.1 0.4
v 0.6 0.2 0.4
v 0.2 0 0.3
v 0.2 0.1 0.3
v 0.2 0.2 0.3
v 0.2 0.3 0.3
v 0.3 0 0.3
v 0.3 0.1 0.3
v 0.3 0.2 0.3
v 0.3 0.3 0.3
v 0.4 0.1 0.3
v 0.4 0.2 0.3
v 0.1 0 0.2
v 0.1 0.1 0.2
v 0.1 0.2 0.2
v 0.1 0.3 0.2
v 0.2 0 0.2
v 0.2 0.1 0.2
v 0.2 0.2 0.2
v 0.2 0.3 0.2
v 0.3 0.1 0.2
v 0.3 0.2 0.2
v 0 0 0.1
v 0 0.1 0.1
v 0 0.2 0.1
v 0 0.3 0.1
v 0.1 0 0.1
v 0.1 0.1 0.1
v 0.1 0.2 0.1
v 0.1 0.3 0.1
v 0.2 0.1 0.1
v 0.2 0.2 0.1
v -0.1 0 -0.1
v -0.1 0.1 -0.1
v -0.1 0.2 -0.1
v -0.1 0.3 -0.1
v 0 0 -0.1
v 0 0.1 -0.1
v 0 0.2 -0.1
v 0 0.3 -0.1
v 0.1 0.1 -0.1
v 0.1 0.2 -0.1
v -0.2 0 -0.3
v -0.2 0.1 -0.3
v -0.2 0.2 -0.3
v -0.2 0.3 -0.3
v -0.1 0 -0.3
v -0.1 0.1 -0.3
v -0.1 0.2 -0.3
v -0.1 0.3 -0.3
v 0 0.1 -0.3
v 0 0.2 -0.3
v -0.5 0.1 -0.5
v -0.5 0.2 -0.5
v -0.4 0 -0.5
v -0.4 0.1 -0.5
v -0.4 0.2 -0.5
v -0.4 0.3 -0.5
v -0.2 0 -0.5
v -0.2 0.1 -0.5
v -0.2 0.2 -0.5
v -0.2 0.3 -0.5
v -0.1 0.1 -0.5
v -0.1 0.2 -0.5
v -0.4 0.1 -0.7
v -0.4 0.2 -0.7
v -0.3 0.1 -0.7
v -0.3 0.2 -0.7
v -0.3 0.1 -0.8
v -0.3 0.2 -0.8
v -0.2 0.1 -0.8
v -0.2 0.2 -0.8
v 0.2 0 0.6
v 0.6 0 0.6
v 0.1 0 0.5
v 0.2 0 0.5
v 0.4 0 0.5
v 0.6 0 0.5
v 0 0 0.4
v 0.1 0 0.4
v 0.3 0 0.4
v 0.4 0 0.4
v -0.1 0 0.3
v 0 0 0.3
v 0.2 0 0.3
v 0.3 0 0.3
v -0.2 0 0.2
v -0.1 0 0.2
v 0.1 0 0.2
v 0.2 0 0.2
v 0 0 0.1
v 0.1 0 0.1
v -0.3 0 0
v -0.2 0 0
v -0.1 0 -0.1
v 0 0 -0.1
v -0.4 0 -0.2
v -0.3 0 -0.2
v -0.2 0 -0.3
v -0.1 0 -0.3
v -0.4 0 -0.5
v -0.2 0 -0.5
v 0.2 0.1 0.7
v 0.7 0.1 0.7
v 0.8 0.1 0.7
v 0.1 0.1 0.6
v 0.2 0.1 0.6
v 0.6 0.1 0.6
v 0 0.1 0.5
v 0.1 0.1 0.5
v 0.2 0.1 0.5
v 0.4 0.1 0.5
v 0.6 0.1 0.5
v 0.7 0.1 0.5
v 0.8 0.1 0.5
v -0.1 0.1 0.4
v 0 0.1 0.4
v 0.1 0.1 0.4
v 0.3 0.1 0.4
v 0.4 0.1 0.4
v 0.6 0.1 0.4
v -0.2 0.1 0.3
v -0.1 0.1 0.3
v 0 0.1 0.3
v 0.2 0.1 0.3
v 0.3 0.1 0.3
v 0.4 0.1 0.3
v -0.3 0.1 0.2
v -0.2 0.1 0.2
v -0.1 0.1 0.2
v 0.1 0.1 0.2
v 0.2 0.1 0.2
v 0.3 0.1 0.2
v 0 0.1 0.1
v 0.1 0.1 0.1
v 0.2 0.1 0.1
v -0.4 0.1 0
v -0.3 0.1 0
v -0.2 0.1 0
v -0.1 0.1 -0.1
v 0 0.1 -0.1
v 0.1 0.1 -0.1
v -0.5 0.1 -0.2
v -0.4 0.1 -0.2
v -0.3 0.1 -0.2
v -0.2 0.1 -0.3
v -0.1 0.1 -0.3
v 0 0.1 -0.3
v -0.5 0.1 -0.5
v -0.4 0.1 -0.5
v -0.2 0.1 -0.5
v -0.1 0.1 -0.5
v -0.4 0.1 -0.6
v -0.2 0.1 -0.6
v -0.4 0.1 -0.7
v -0.3 0.1 -0.7
v -0.3 0.1 -0.8
v -0.2 0.1 -0.8
v 0.2 0.2 0.7
v 0.7 0.2 0.7
v 0.8 0.2 0.7
v 0.1 0.2 0.6
v 0.2 0.2 0.6
v 0.3 0.2 0.6
v 0.6 0.2 0.6
v 0 0.2 0.5
v 0.1 0.2 0.5
v 0.3 0.2 0.5
v 0.4 0.2 0.5
v 0.6 0.2 0.5
v 0.7 0.2 0.5
v 0.8 0.2 0.5
v -0.1 0.2 0.4
v 0 0.2 0.4
v 0.1 0.2 0.4
v 0.3 0.2 0.4
v 0.4 0.2 0.4
v 0.6 0.2 0.4
v -0.2 0.2 0.3
v -0.1 0.2 0.3
v 0 0.2 0.3
v 0.2 0.2 0.3
v 0.3 0.2 0.3
v 0.4 0.2 0.3
v -0.3 0.2 0.2
v -0.2 0.2 0.2
v -0.1 0.2 0.2
v 0.1 0.2 0.2
v 0.2 0.2 0.2
v 0.3 0.2 0.2
v 0 0.2 0.1
v 0.1 0.2 0.1
v 0.2 0.2 0.1
v -0.4 0.2 0
v -0.3 0.2 0
v -0.2 0.2 0
v -0.1 0.2 -0.1
v 0 0.2 -0.1
v 0.1 0.2 -0.1
v -0.5 0.2 -0.2
v -0.4 0.2 -0.2
v -0.3 0.2 -0.2
v -0.2 0.2 -0.3
v -0.1 0.2 -0.3
v 0 0.2 -0.3
v -0.5 0.2 -0.5
v -0.4 0.2 -0.5
v -0.2 0.2 -0.5
v -0.1 0.2 -0.5
v -0.4 0.2 -0.6
v -0.2 0.2 -0.6
v -0.4 0.2 -0.7
v -0.3 0.2 -0.7
v -0.3 0.2 -0.8
v -0.2 0.2 -0.8
v 0.3 0.3 0.6
v 0.6 0.3 0.6
v 0.1 0.3 0.5
v 0.3 0.3 0.5
v 0.4 0.3 0.5
v 0.6 0.3 0.5
v 0 0.3 0.4
v 0.1 0.3 0.4
v 0.3 0.3 0.4
v 0.4 0.3 0.4
v -0.1 0.3 0.3
v 0 0.3 0.3
v 0.2 0.3 0.3
v 0.3 0.3 0.3
v -0.2 0.3 0.2
v -0.1 0.3 0.2
v 0.1 0.3 0.2
v 0.2 0.3 0.2
v 0 0.3 0.1
v 0.1 0.3 0.1
v -0.3 0.3 0
v -0.2 0.3 0
v -0.1 0.3 -0.1
v 0 0.3 -0.1
v -0.4 0.3 -0.2
v -0.3 0.3 -0.2
v -0.2 0.3 -0.3
v -0.1 0.3 -0.3
v -0.4 0.3 -0.5
v -0.2 0.3 -0.5

# faces
f 3/2/1 2/2/1 1/2/1
f 4/2/1 2/2/1 3/2/1
f 8/3/1 6/3/1 5/3/1
f 9/3/1 6/3/1 8/3/1
f 12/2/1 8/2/1 7/2/1
f 13/2/1 8/2/1 12/2/1
f 14/3/1 10/3/1 9/3/1
f 15/1/1 11/1/1 10/1/1
f 15/3/1 10/3/1 14/3/1
f 16/1/1 11/1/1 15/1/1
f 17/3/1 14/3/1 13/3/1
f 18/3/1 14/3/1 17/3/1
f 22/3/1 20/3/1 19/3/1
f 23/3/1 20/3/1 22/3/1
f 26/2/1 22/2/1 21/2/1
f 27/2/1 22/2/1 26/2/1
f 29/1/1 25/1/1 24/1/1
f 30/1/1 25/1/1 29/1/1
f 31/3/1 28/3/1 27/3/1
f 32/3/1 28/3/1 31/3/1
f 36/3/1 34/3/1 33/3/1
f 37/3/1 34/3/1 36/3/1
f 38/2/1 36/2/1 35/2/1
f 39/2/1 36/2/1 38/2/1
f 41/3/1 40/3/1 39/3/1
f 42/3/1 40/3/1 41/3/1
f 46/3/1 44/3/1 43/3/1
f 47/3/1 44/3/1 46/3/1
f 48/2/1 46/2/1 45/2/1
f 49/2/1 46/2/1 48/2/1
f 51/3/1 50/3/1 49/3/1
f 52/3/1 50/3/1 51/3/1
f 56/3/1 54/3/1 53/3/1
f 57/3/1 54/3/1 56/3/1
f 58/2/1 56/2/1 55/2/1
f 59/2/1 56/2/1 58/2/1
f 61/3/1 60/3/1 59/3/1
f 62/3/1 60/3/1 61/3/1
f 66/3/1 64/3/1 63/3/1
f 67/3/1 64/3/1 66/3/1
f 68/2/1 66/2/1 65/2/1
f 69/2/1 66/2/1 68/2/1
f 71/3/1 70/3/1 69/3/1
f 72/3/1 70/3/1 71/3/1
f 76/3/1 74/3/1 73/3/1
f 77/3/1 74/3/1 76/3/1
f 78/2/1 76/2/1 75/2/1
f 79/2/1 76/2/1 78/2/1
f 82/3/1 81/3/1 80/3/1
f 83/3/1 81/3/1 82/3/1
f 84/3/2 85/3/2 86/3/2
f 86/3/2 85/3/2 87/3/2
f 87/3/2 88/3/2 91/3/2
f 88/1/2 89/1/2 92/1/2
f 91/3/2 88/3/2 92/3/2
f 92/1/2 89/1/2 93/1/2
f 90/3/2 91/3/2 94/3/2
f 94/3/2 91/3/2 95/3/2
f 96/3/2 97/3/2 98/3/2
f 98/3/2 97/3/2 99/3/2
f 99/2/2 100/2/2 102/2/2
f 102/2/2 100/2/2 103/2/2
f 101/3/2 102/3/2 104/3/2
f 104/3/2 102/3/2 105/3/2
f 106/3/2 107/3/2 108/3/2
f 108/3/2 107/3/2 109/3/2
f 109/2/2 110/2/2 112/2/2
f 112/2/2 110/2/2 113/2/2
f 111/3/2 112/3/2 114/3/2
f 114/3/2 112/3/2 115/3/2
f 116/3/2 117/3/2 118/3/2
f 118/3/2 117/3/2 119/3/2
f 119/2/2 120/2/2 122/2/2
f 122/2/2 120/2/2 123/2/2
f 121/3/2 122/3/2 124/3/2
f 124/3/2 122/3/2 125/3/2
f 126/3/2 127/3/2 128/3/2
f 128/3/2 127/3/2 129/3/2
f 129/2/2 130/2/2 132/2/2
f 132/2/2 130/2/2 133/2/2
f 131/3/2 132/3/2 134/3/2
f 134/3/2 132/3/2 135/3/2
f 136/3/2 137/3/2 138/3/2
f 138/3/2 137/3/2 139/3/2
f 139/2/2 140/2/2 142/2/2
f 142/2/2 140/2/2 143/2/2
f 141/3/2 142/3/2 144/3/2
f 144/3/2 142/3/2 145/3/2
f 146/3/2 147/3/2 148/3/2
f 148/3/2 147/3/2 149/3/2
f 149/2/2 150/2/2 152/2/2
f 152/2/2 150/2/2 153/2/2
f 151/3/2 152/3/2 154/3/2
f 154/3/2 152/3/2 155/3/2
f 156/3/2 157/3/2 158/3/2
f 158/3/2 157/3/2 159/3/2
f 159/2/2 160/2/2 162/2/2
f 162/2/2 160/2/2 163/2/2
f 161/3/2 162/3/2 164/3/2
f 164/3/2 162/3/2 165/3/2
f 166/1/2 167/1/2 168/1/2
f 168/1/2 167/1/2 169/1/2
f 172/2/3 171/2/3 170/2/3
f 173/2/3 171/2/3 172/2/3
f 174/1/3 173/1/3 172/1/3
f 175/1/3 173/1/3 174/1/3
f 179/2/3 177/2/3 176/2/3
f 180/2/3 177/2/3 179/2/3
f 183/3/3 179/3/3 178/3/3
f 184/3/3 179/3/3 183/3/3
f 185/3/3 182/3/3 181/3/3
f 186/3/3 182/3/3 185/3/3
f 190/2/3 188/2/3 187/2/3
f 191/2/3 188/2/3 190/2/3
f 193/3/3 190/3/3 189/3/3
f 194/3/3 190/3/3 193/3/3
f 195/3/3 192/3/3 191/3/3
f 196/3/3 192/3/3 195/3/3
f 200/2/3 198/2/3 197/2/3
f 201/2/3 198/2/3 200/2/3
f 203/3/3 200/3/3 199/3/3
f 204/3/3 200/3/3 203/3/3
f 205/3/3 202/3/3 201/3/3
f 206/3/3 202/3/3 205/3/3
f 210/2/3 208/2/3 207/2/3
f 211/2/3 208/2/3 210/2/3
f 213/3/3 210/3/3 209/3/3
f 214/3/3 210/3/3 213/3/3
f 215/3/3 212/3/3 211/3/3
f 216/3/3 212/3/3 215/3/3
f 220/2/3 218/2/3 217/2/3
f 221/2/3 218/2/3 220/2/3
f 223/3/3 220/3/3 219/3/3
f 224/3/3 220/3/3 223/3/3
f 225/3/3 222/3/3 221/3/3
f 226/3/3 222/3/3 225/3/3
f 230/2/3 228/2/3 227/2/3
f 231/2/3 228/2/3 230/2/3
f 233/3/3 230/3/3 229/3/3
f 234/3/3 230/3/3 233/3/3
f 235/3/3 232/3/3 231/3/3
f 236/3/3 232/3/3 235/3/3
f 240/2/3 238/2/3 237/2/3
f 241/2/3 238/2/3 240/2/3
f 243/3/3 240/3/3 239/3/3
f 244/3/3 240/3/3 243/3/3
f 245/3/3 242/3/3 241/3/3
f 246/3/3 242/3/3 245/3/3
f 247/3/4 248/3/4 251/3/4
f 251/3/4 248/3/4 252/3/4
f 249/3/4 250/3/4 253/3/4
f 253/3/4 250/3/4 254/3/4
f 252/2/4 253/2/4 255/2/4
f 255/2/4 253/2/4 256/2/4
f 255/1/4 256/1/4 257/1/4
f 257/1/4 256/1/4 258/1/4
f 259/3/4 260/3/4 263/3/4
f 263/3/4 260/3/4 264/3/4
f 261/3/4 262/3/4 265/3/4
f 265/3/4 262/3/4 266/3/4
f 264/2/4 265/2/4 267/2/4
f 267/2/4 265/2/4 268/2/4
f 269/3/4 270/3/4 273/3/4
f 273/3/4 270/3/4 274/3/4
f 271/3/4 272/3/4 275/3/4
f 275/3/4 272/3/4 276/3/4
f 274/2/4 275/2/4 277/2/4
f 277/2/4 275/2/4 278/2/4
f 279/3/4 280/3/4 283/3/4
f 283/3/4 280/3/4 284/3/4
f 281/3/4 282/3/4 285/3/4
f 285/3/4 282/3/4 286/3/4
f 284/2/4 285/2/4 287/2/4
f 287/2/4 285/2/4 288/2/4
f 289/3/4 290/3/4 293/3/4
f 293/3/4 290/3/4 294/3/4
f 291/3/4 292/3/4 295/3/4
f 295/3/4 292/3/4 296/3/4
f 294/2/4 295/2/4 297/2/4
f 297/2/4 295/2/4 298/2/4
f 299/3/4 300/3/4 303/3/4
f 303/3/4 300/3/4 304/3/4
f 301/3/4 302/3/4 305/3/4
f 305/3/4 302/3/4 306/3/4
f 304/2/4 305/2/4 307/2/4
f 307/2/4 305/2/4 308/2/4
f 309/3/4 310/3/4 313/3/4
f 313/3/4 310/3/4 314/3/4
f 311/3/4 312/3/4 315/3/4
f 315/3/4 312/3/4 316/3/4
f 314/2/4 315/2/4 317/2/4
f 317/2/4 315/2/4 318/2/4
f 319/2/4 320/2/4 322/2/4
f 322/2/4 320/2/4 323/2/4
f 321/3/4 322/3/4 325/3/4
f 325/3/4 322/3/4 326/3/4
f 323/3/4 324/3/4 327/3/4
f 327/3/4 324/3/4 328/3/4
f 326/2/4 327/2/4 329/2/4
f 329/2/4 327/2/4 330/2/4
f 331/1/4 332/1/4 333/1/4
f 333/1/4 332/1/4 334/1/4
f 335/1/4 336/1/4 337/1/4
f 337/1/4 336/1/4 338/1/4
f 342/3/5 340/3/5 339/3/5
f 343/3/5 340/3/5 342/3/5
f 344/3/5 340/3/5 343/3/5
f 346/3/5 342/3/5 341/3/5
f 346/3/5 343/3/5 342/3/5
f 347/3/5 343/3/5 346/3/5
f 348/3/5 343/3/5 347/3/5
f 350/3/5 346/3/5 345/3/5
f 350/3/5 347/3/5 346/3/5
f 351/3/5 347/3/5 350/3/5
f 352/3/5 347/3/5 351/3/5
f 354/3/5 350/3/5 349/3/5
f 354/3/5 351/3/5 350/3/5
f 355/3/5 351/3/5 354/3/5
f 356/3/5 351/3/5 355/3/5
f 357/3/5 354/3/5 353/3/5
f 357/3/5 355/3/5 354/3/5
f 358/3/5 355/3/5 357/3/5
f 360/3/5 357/3/5 353/3/5
f 361/3/5 357/3/5 360/3/5
f 361/3/5 360/3/5 359/3/5
f 362/3/5 357/3/5 361/3/5
f 364/3/5 361/3/5 359/3/5
f 365/3/5 361/3/5 364/3/5
f 365/3/5 364/3/5 363/3/5
f 366/3/5 361/3/5 365/3/5
f 367/3/5 365/3/5 363/3/5
f 368/3/5 365/3/5 367/3/5
f 373/2/5 370/2/5 369/2/5
f 374/2/5 370/2/5 373/2/5
f 376/2/5 373/2/5 372/2/5
f 377/2/5 373/2/5 376/2/5
f 379/2/5 370/2/5 374/2/5
f 380/1/5 371/1/5 370/1/5
f 380/2/5 370/2/5 379/2/5
f 381/1/5 371/1/5 380/1/5
f 383/2/5 376/2/5 375/2/5
f 384/2/5 376/2/5 383/2/5
f 386/2/5 379/2/5 378/2/5
f 387/2/5 379/2/5 386/2/5
f 389/2/5 383/2/5 382/2/5
f 390/2/5 383/2/5 389/2/5
f 392/2/5 386/2/5 385/2/5
f 393/2/5 386/2/5 392/2/5
f 395/2/5 389/2/5 388/2/5
f 396/2/5 389/2/5 395/2/5
f 398/2/5 392/2/5 391/2/5
f 399/2/5 392/2/5 398/2/5
f 401/2/5 398/2/5 397/2/5
f 402/2/5 398/2/5 401/2/5
f 404/2/5 395/2/5 394/2/5
f 405/2/5 395/2/5 404/2/5
f 407/2/5 401/2/5 400/2/5
f 408/2/5 401/2/5 407/2/5
f 410/2/5 404/2/5 403/2/5
f 411/2/5 404/2/5 410/2/5
f 413/2/5 407/2/5 406/2/5
f 414/2/5 407/2/5 413/2/5
f 415/2/5 410/2/5 409/2/5
f 416/2/5 410/2/5 415/2/5
f 417/2/5 413/2/5 412/2/5
f 418/2/5 413/2/5 417/2/5
f 419/3/5 417/3/5 416/3/5
f 420/3/5 417/3/5 419/3/5
f 421/1/5 420/1/5 419/1/5
f 422/1/5 420/1/5 421/1/5
f 423/1/5 420/1/5 422/1/5
f 424/1/5 420/1/5 423/1/5
f 425/2/6 426/2/6 429/2/6
f 429/2/6 426/2/6 430/2/6
f 430/2/6 426/2/6 431/2/6
f 428/2/6 429/2/6 433/2/6
f 429/2/6 430/2/6 433/2/6
f 433/2/6 430/2/6 434/2/6
f 431/2/6 426/2/6 436/2/6
f 426/1/6 427/1/6 437/1/6
f 436/2/6 426/2/6 437/2/6
f 437/1/6 427/1/6 438/1/6
f 432/2/6 433/2/6 440/2/6
f 440/2/6 433/2/6 441/2/6
f 435/2/6 436/2/6 443/2/6
f 443/2/6 436/2/6 444/2/6
f 439/2/6 440/2/6 446/2/6
f 446/2/6 440/2/6 447/2/6
f 442/2/6 443/2/6 449/2/6
f 449/2/6 443/2/6 450/2/6
f 445/2/6 446/2/6 452/2/6
f 452/2/6 446/2/6 453/2/6
f 448/2/6 449/2/6 455/2/6
f 455/2/6 449/2/6 456/2/6
f 454/2/6 455/2/6 458/2/6
f 458/2/6 455/2/6 459/2/6
f 451/2/6 452/2/6 461/2/6
f 461/2/6 452/2/6 462/2/6
f 457/2/6 458/2/6 464/2/6
f 464/2/6 458/2/6 465/2/6
f 460/2/6 461/2/6 467/2/6
f 467/2/6 461/2/6 468/2/6
f 463/2/6 464/2/6 470/2/6
f 470/2/6 464/2/6 471/2/6
f 466/2/6 467/2/6 472/2/6
f 472/2/6 467/2/6 473/2/6
f 469/2/6 470/2/6 474/2/6
f 474/2/6 470/2/6 475/2/6
f 473/3/6 474/3/6 476/3/6
f 476/3/6 474/3/6 477/3/6
f 476/1/6 477/1/6 478/1/6
f 478/1/6 477/1/6 479/1/6
f 479/1/6 477/1/6 480/1/6
f 480/1/6 477/1/6 481/1/6
f 482/3/6 483/3/6 485/3/6
f 485/3/6 483/3/6 486/3/6
f 486/3/6 483/3/6 487/3/6
f 484/3/6 485/3/6 489/3/6
f 485/3/6 486/3/6 489/3/6
f 489/3/6 486/3/6 490/3/6
f 490/3/6 486/3/6 491/3/6
f 488/3/6 489/3/6 493/3/6
f 489/3/6 490/3/6 493/3/6
f 493/3/6 490/3/6 494/3/6
f 494/3/6 490/3/6 495/3/6
f 492/3/6 493/3/6 497/3/6
f 493/3/6 494/3/6 497/3/6
f 497/3/6 494/3/6 498/3/6
f 498/3/6 494/3/6 499/3/6
f 496/3/6 497/3/6 500/3/6
f 497/3/6 498/3/6 500/3/6
f 500/3/6 498/3/6 501/3/6
f 496/3/6 500/3/6 503/3/6
f 503/3/6 500/3/6 504/3/6
f 502/3/6 503/3/6 504/3/6
f 504/3/6 500/3/6 505/3/6
f 502/3/6 504/3/6 507/3/6
f 507/3/6 504/3/6 508/3/6
f 506/3/6 507/3/6 508/3/6
f 508/3/6 504/3/6 509/3/6
f 506/3/6 508/3/6 510/3/6
f 510/3/6 508/3/6 511/3/6
